<?xml version="1.0" standalone="no"?>
<svg xmlns="http://www.w3.org/2000/svg" viewBox="0 0 103.549 119.568" width="103.549" height="119.568"><polygon fill="#a5cc6b" points="103.549,29.892 103.549,89.676 51.7745,119.568 0,89.676 0,29.892 51.7745,0"></polygon><g fill="white" color="white" transform="translate(29.774500000000003 22.5) scale(0.9166667)"><svg width="48.0" height="48.0" x="0.0" y="0.0" viewBox="0 0 48 48"><title></title><path data-name="Path" d="M29.63,44c-2.41,2.72-4.25,4-5.63,4s-3.22-1.32-5.63-4C11.84,36.58,2.42,20,3.28,13A13.06,13.06,0,0,1,9.73,3.13C13.09,1.08,17.62,0,22.81,0L24,0l1.18,0c5.2,0,9.73,1.08,13.09,3.13A13.06,13.06,0,0,1,44.72,13C45.58,20,36.16,36.58,29.63,44Z"></path></svg></g><path fill="white" fill-rule="nonzero" d="M11.62 2.60L11.62 2.60Q9.86 2.60 7.71 4.54Q5.57 6.47 4.06 9.37Q2.55 12.26 2.55 14.76L2.55 14.76Q2.55 15.76 3.19 16.48Q3.84 17.19 4.70 17.19L4.70 17.19Q6.05 17.19 7.85 15.72Q9.66 14.25 11.20 11.93L11.20 11.93Q9.63 12.35 8.88 12.35Q8.12 12.35 7.59 11.94Q7.06 11.54 7.06 11.17L7.06 11.17Q7.06 10.72 8.26 10.46Q9.46 10.19 11.28 10.19L11.28 10.19Q12.29 10.19 12.92 11.05Q13.55 11.90 13.55 13.03Q13.55 14.17 12.15 18.37Q10.75 22.57 10.04 22.57Q9.32 22.57 9.32 21.76L9.32 21.76Q9.32 20.97 9.73 19.63Q10.14 18.28 10.58 16.87Q11.03 15.46 11.31 14.56L11.31 14.56Q9.94 16.88 8.20 18.24Q6.47 19.60 4.83 19.60Q3.19 19.60 1.60 18.07Q0 16.55 0 14.73L0 14.73Q0 11.90 1.79 8.43Q3.58 4.96 6.30 2.48Q9.02 0 11.40 0L11.40 0Q12.18 0 12.94 0.94Q13.69 1.88 13.69 2.45Q13.69 3.02 13.38 3.02L13.38 3.02Q13.30 3.02 12.77 2.81Q12.24 2.60 11.62 2.60Z" transform="translate(44.929, 74.5)"></path></svg>